<?xml version="1.0" encoding="utf-8" ?><svg xmlns="http://www.w3.org/2000/svg" xmlns:xlink="http://www.w3.org/1999/xlink" width="1024" height="1024" viewBox="0 0 1024 1024"><path fill="#FEFEFE" d="M333.475 283.283C338.812 282.762 344.141 283.637 349.375 283.415C409.478 280.875 469.914 302.634 500.248 358.173C529.413 411.573 557.136 467.889 586.39 522.118L647.327 636.443C663.174 665.877 679.074 695.249 693.993 725.179C695.778 728.76 699.174 734.991 698.095 738.895C696.58 740.588 684.142 742.464 681.328 742.806C674.679 743.681 668.748 743.273 662.295 743.5C613.203 745.232 565.704 725.329 535.127 686.305C519.87 666.833 509.572 642.539 497.638 620.284L476.121 579.481C456.124 542.189 436.183 505.094 417.22 467.236C415.938 464.676 414.677 462.111 413.316 459.59L348.178 340.59C342.852 331.039 336.88 321.558 331.723 311.935C328.992 306.838 316.798 289.874 318.484 285.236C321.76 283.101 329.196 283.468 333.475 283.283Z"/><path fill="#FEFEFE" d="M314 358.681C317.289 359.396 318.151 360.373 319.838 363.276C323.799 370.09 326.793 377.355 330.542 384.29L371.191 460.449C382.426 481.521 398.582 508.608 407.487 530.099C410.074 536.341 395.881 595.841 393.6 605.984L378.602 674.336L369.651 715.462C368.082 722.393 366.01 734.13 362.889 739.905C357.303 744.469 335.078 743.243 326.875 743.286C309.765 743.08 292.653 743.021 275.542 743.11C263.18 743.133 250.067 743.276 237.729 741.82C235.578 741.566 235.305 741.447 234.428 740.148C233.354 733.786 241.778 701.455 243.433 693.496L275.025 546.992C276.593 539.795 277.593 532.15 279.145 524.784L298.347 432.856L307.283 390.793C308.707 383.796 311.302 363.399 314 358.681Z"/><path fill="#FEFEFE" d="M777.852 281.695C780.194 281.256 786.954 281.302 789.269 282.4C790.785 287.384 770.622 376.598 767.989 388.759L735.727 538.706L719.657 612.052C717.042 624.27 712.369 653.57 707.506 663.121C703.522 659.846 701.906 656.842 699.515 652.425C692.749 639.931 686.344 627.28 678.934 615.148C668.401 598.063 659.145 578.883 649.43 561.257C636.776 538.299 622.065 514.187 619.836 487.504C618.44 470.801 619.402 452.76 620.853 436.054C632.356 374.043 681.335 316.697 739.258 292.653C749.411 288.438 767.816 282.476 777.852 281.695Z"/></svg>